HIERARCHY
ROOT Root
{
	OFFSET 0.000000 0.000000 0.000000 
	CHANNELS 6 Xposition Yposition Zposition Xrotation Yrotation Zrotation
	JOINT LHIP
	{
		OFFSET 3.939827 0.000000 0.000000 
		CHANNELS 3 Xrotation  Yrotation Zrotation
		JOINT LKNEE
		{
			OFFSET 0.000000 -17.893505 0.000000 
			CHANNELS 3 Xrotation  Yrotation Zrotation
			JOINT LANK
			{
				OFFSET 0.000000 -15.102188 0.000000 
				CHANNELS 3 Xrotation  Yrotation Zrotation
				JOINT LTOES
				{
					OFFSET 0.000000 0.000000 5.934456 
					CHANNELS 3 Xrotation  Yrotation Zrotation
					End Site
					{
						OFFSET 0.000000 0.000000 2.922160 
					}
				}
			}
		}
	}
	JOINT RHIP
	{
		OFFSET -3.939827 0.000000 0.000000 
		CHANNELS 3 Xrotation  Yrotation Zrotation
		JOINT RKNEE
		{
			OFFSET 0.000000 -17.893505 0.000000 
			CHANNELS 3 Xrotation  Yrotation Zrotation
			JOINT RANK
			{
				OFFSET 0.000000 -15.102188 0.000000 
				CHANNELS 3 Xrotation  Yrotation Zrotation
				JOINT RTOES
				{
					OFFSET 0.000000 0.000000 5.934456 
					CHANNELS 3 Xrotation  Yrotation Zrotation
					End Site
					{
						OFFSET 0.000000 0.000000 2.922160 
					}
				}
			}
		}
	}
	JOINT LOWBACKTARGET
	{
		OFFSET 0.000000 0.000000 0.000000 
		CHANNELS 3 Xrotation  Yrotation Zrotation
		JOINT LOWERBACK
		{
			OFFSET 0.000000 6.803836 0.000000 
			CHANNELS 3 Xrotation  Yrotation Zrotation
			JOINT UPPERBACK
			{
				OFFSET 0.000000 6.818373 0.000000 
				CHANNELS 3 Xrotation  Yrotation Zrotation
				JOINT THORAX
				{
					OFFSET 0.000000 6.818374 0.000000 
					CHANNELS 3 Xrotation  Yrotation Zrotation
					JOINT LSHOROTATE
					{
						OFFSET 0.000000 0.000000 0.000000 
						CHANNELS 3 Xrotation  Yrotation Zrotation
						JOINT LSHO
						{
							OFFSET 6.795113 0.000000 0.000000 
							CHANNELS 3 Xrotation  Yrotation Zrotation
							JOINT LUPARMROLL
							{
								OFFSET 6.609026 0.000000 0.000000 
								CHANNELS 3 Xrotation  Yrotation Zrotation
								JOINT LELB
								{
									OFFSET 6.611931 0.000000 0.000000 
									CHANNELS 3 Xrotation  Yrotation Zrotation
									JOINT LWRIROLL
									{
										OFFSET 5.117413 0.000000 0.000000 
										CHANNELS 3 Xrotation  Yrotation Zrotation
										JOINT LWRI
										{
											OFFSET 5.117413 0.000000 0.000000 
											CHANNELS 3 Xrotation  Yrotation Zrotation
											End Site
											{
												OFFSET 3.151861 0.000000 0.000000 
											}
										}
									}
								}
							}
						}
					}
					JOINT RSHOROTATE
					{
						OFFSET 0.000000 0.000000 0.000000 
						CHANNELS 3 Xrotation  Yrotation Zrotation
						JOINT RSHO
						{
							OFFSET -6.795113 0.000000 0.000000 
							CHANNELS 3 Xrotation  Yrotation Zrotation
							JOINT RUPARMROLL
							{
								OFFSET -6.609026 0.000000 0.000000 
								CHANNELS 3 Xrotation  Yrotation Zrotation
								JOINT RELB
								{
									OFFSET -6.611931 0.000000 0.000000 
									CHANNELS 3 Xrotation  Yrotation Zrotation
									JOINT RWRIROLL
									{
										OFFSET -5.117413 0.000000 0.000000 
										CHANNELS 3 Xrotation  Yrotation Zrotation
										JOINT RWRI
										{
											OFFSET -5.117413 0.000000 0.000000 
											CHANNELS 3 Xrotation  Yrotation Zrotation
											End Site
											{
												OFFSET -3.151861 0.000000 0.000000 
											}
										}
									}
								}
							}
						}
					}
					JOINT NECKTARGET
					{
						OFFSET 0.000000 0.000000 0.000000 
						CHANNELS 3 Xrotation  Yrotation Zrotation
						JOINT HEAD
						{
							OFFSET 0.000000 4.175345 0.000000 
							CHANNELS 3 Xrotation  Yrotation Zrotation
							End Site
							{
								OFFSET 0.000000 4.134638 0.000000 
							}
						}
					}
				}
			}
		}
	}
}
MOTION
Frames: 7
Frame Time: 0.016667
-0.134543 36.460918 -0.772749 -16.865129 1.839176 -3.219900 17.162975 10.215299 21.609686 3.863558 -0.109407 -1.842005 37.782566 -4.333810 -14.689385 -40.091373 -0.012789 0.008085 23.966976 -6.598528 -3.780247 6.539175 -0.248569 -2.440641 22.880116 -1.617793 13.599283 -32.480366 0.026281 -0.017853 -176.414017 -1.304466 177.836884 176.370621 0.963739 -176.027847 -2.571669 -1.484943 2.750930 0.000000 -0.711248 0.000000 0.000032 -6.637762 -13.409357 -10.783884 -49.977489 -73.169403 -15.446606 0.000000 0.000000 179.984848 -43.132084 179.988998 38.722786 0.000000 0.000000 -7.083839 -22.883316 -17.722929 -0.000016 7.220625 9.182937 -9.696362 55.959896 75.249855 -25.182486 0.000000 0.000000 -179.970932 35.942810 179.968002 25.985725 0.000000 0.000000 0.431012 7.626110 -3.245860 1.966055 -0.558367 -6.743766 18.091482 56.380123 -16.918600 
-0.142530 36.459583 -0.768735 -16.881969 1.859184 -3.214855 17.198755 10.180554 21.618019 3.839900 -0.092465 -1.839677 37.803200 -4.338010 -14.696073 -40.098854 0.012853 0.001212 23.993937 -6.637406 -3.763799 6.541253 -0.236744 -2.446416 22.866425 -1.603578 13.570998 -32.482105 0.005723 -0.041305 -176.396469 -1.341265 177.873764 176.371857 0.999470 -176.024323 -2.546690 -1.521244 2.750364 0.000000 -0.735402 0.000000 0.000018 -6.576499 -13.367039 -10.879933 -50.007065 -73.254341 -15.423360 0.000000 0.000000 180.000900 -43.168621 180.012802 38.774082 0.000000 0.000000 -7.100671 -22.989609 -17.689899 -0.000009 7.183823 9.217940 -9.709357 56.024460 75.209152 -25.184319 0.000000 0.000000 -179.956329 35.939217 179.963211 26.072382 0.000000 0.000000 0.446781 7.527398 -3.407418 1.863780 -0.543016 -6.692399 18.056335 56.379475 -16.909632 
-0.147316 36.458252 -0.765527 -16.874416 1.869371 -3.223680 17.194897 10.177742 21.636332 3.826819 -0.105625 -1.835925 37.806499 -4.334393 -14.712132 -40.080990 0.005335 0.000507 23.996559 -6.627144 -3.741108 6.545064 -0.251939 -2.451195 22.854427 -1.595045 13.562202 -32.468845 0.010352 -0.035024 -176.403809 -1.353668 177.877975 176.370560 1.013997 -176.043243 -2.531328 -1.535495 2.757461 0.000000 -0.748498 0.000000 0.000000 -6.548859 -13.342712 -10.928494 -50.047020 -73.296913 -15.424254 0.000000 0.000000 179.989166 -43.191490 180.012833 38.811390 0.000000 0.000000 -7.109515 -23.045630 -17.672516 -0.000010 7.138765 9.244546 -9.698963 56.076023 75.161453 -25.196827 0.000000 0.000000 -179.951050 35.934544 179.968246 26.103779 0.000000 0.000000 0.454716 7.473026 -3.492017 1.795185 -0.530358 -6.658372 17.969408 56.382954 -16.865128 
-0.149972 36.456921 -0.762859 -16.850634 1.873004 -3.241755 17.164618 10.196210 21.661287 3.820793 -0.138853 -1.831229 37.798218 -4.325552 -14.734439 -40.046192 -0.024288 0.003927 23.982937 -6.584127 -3.714261 6.550026 -0.285147 -2.455307 22.843559 -1.590304 13.566397 -32.445621 0.031779 -0.008927 -176.427780 -1.349808 177.860413 176.367599 1.014390 -176.077133 -2.522376 -1.535044 2.769660 0.000000 -0.754222 0.000000 0.000000 -6.543638 -13.330376 -10.945396 -50.093929 -73.311249 -15.441258 0.000000 0.000000 179.958908 -43.205246 179.996933 38.839386 0.000000 0.000000 -7.113067 -23.068146 -17.665581 -0.000012 7.088198 9.265551 -9.672945 56.118946 75.109055 -25.216446 0.000000 0.000000 -179.951981 35.929150 179.979858 26.098318 0.000000 0.000000 0.457549 7.448233 -3.525335 1.749048 -0.519467 -6.635916 17.847961 56.389172 -16.796921 
-0.152095 36.455856 -0.759921 -16.836573 1.871488 -3.253719 17.147732 10.214819 21.676735 3.815245 -0.161101 -1.826838 37.790768 -4.321478 -14.749011 -40.018364 -0.047238 0.005788 23.977127 -6.546447 -3.697792 6.554132 -0.311633 -2.457643 22.833895 -1.586477 13.569838 -32.427048 0.048925 0.011941 -176.444382 -1.355068 177.851273 176.362793 1.022194 -176.103897 -2.512839 -1.534594 2.777472 0.000000 -0.759540 0.000000 0.000003 -6.533176 -13.315458 -10.964544 -50.129951 -73.327133 -15.439781 0.000000 0.000000 179.936600 -43.212502 179.985397 38.867744 0.000000 0.000000 -7.105873 -23.071293 -17.646473 0.000001 7.044260 9.279449 -9.662534 56.144878 75.077171 -25.225483 0.000000 0.000000 -179.958694 35.922890 179.989410 26.075455 0.000000 0.000000 0.455910 7.430535 -3.521005 1.701896 -0.508819 -6.609976 17.743103 56.389343 -16.739510 
-0.152082 36.455856 -0.755925 -16.861429 1.849402 -3.241217 17.184471 10.234035 21.654074 3.811590 -0.139430 -1.823652 37.786640 -4.336492 -14.732661 -40.018383 -0.043502 0.001346 24.002588 -6.530077 -3.722874 6.554820 -0.311229 -2.452880 22.829010 -1.586301 13.570230 -32.427036 0.048903 0.011929 -176.431549 -1.396833 177.875809 176.350616 1.059637 -176.102142 -2.500958 -1.534157 2.767735 0.000000 -0.763232 0.000000 0.000010 -6.501762 -13.290233 -10.992558 -50.122364 -73.348984 -15.364396 0.000000 0.000000 179.946136 -43.193771 179.991074 38.897621 0.000000 0.000000 -7.055789 -22.996933 -17.578733 0.000003 7.026833 9.264923 -9.714688 56.102932 75.127426 -25.192173 0.000000 0.000000 -179.988632 35.913208 179.990616 25.982969 0.000000 0.000000 0.436413 7.441206 -3.366084 1.650695 -0.499098 -6.570112 17.704702 56.365597 -16.725401 
-0.152070 36.455860 -0.751929 -16.886251 1.827306 -3.228740 17.221222 10.253238 21.631407 3.807934 -0.117760 -1.820465 37.782516 -4.351509 -14.716317 -40.018410 -0.039766 -0.003096 24.028061 -6.513719 -3.747961 6.555506 -0.310825 -2.448116 22.824135 -1.586126 13.570625 -32.427032 0.048882 0.011917 -176.418701 -1.438594 177.900345 176.338470 1.097080 -176.100357 -2.489080 -1.533723 2.758001 0.000000 -0.766923 0.000000 0.000003 -6.470347 -13.265000 -11.020554 -50.114777 -73.370827 -15.289032 0.000000 0.000000 179.955658 -43.175041 179.996719 38.927490 0.000000 0.000000 -7.005834 -22.922525 -17.511118 0.000001 7.009404 9.250396 -9.766757 56.060951 75.177605 -25.158865 0.000000 0.000000 -180.018585 35.903526 179.991852 25.890491 0.000000 0.000000 0.416887 7.451828 -3.211158 1.599489 -0.489413 -6.530239 17.666313 56.341808 -16.711323 
